<svg xmlns="http://www.w3.org/2000/svg" width="200" height="200" viewBox="0 0 200 200">
  <!-- Fundo circular com gradiente suave -->
  <circle cx="100" cy="100" r="90" fill="#f8f9fa" stroke="#e9ecef" stroke-width="2"/>
  
  <!-- Base do cofre/banco -->
  <rect x="45" y="130" width="110" height="30" rx="5" ry="5" fill="#495057" stroke="#343a40" stroke-width="2"/>
  
  <!-- Corpo do cofre/banco -->
  <rect x="50" y="70" width="100" height="60" rx="8" ry="8" fill="white" stroke="#495057" stroke-width="3"/>
  
  <!-- Colunas do banco -->
  <rect x="60" y="110" width="10" height="20" fill="#e9ecef" stroke="#adb5bd" stroke-width="1"/>
  <rect x="130" y="110" width="10" height="20" fill="#e9ecef" stroke="#adb5bd" stroke-width="1"/>
  <rect x="85" y="110" width="10" height="20" fill="#e9ecef" stroke="#adb5bd" stroke-width="1"/>
  <rect x="105" y="110" width="10" height="20" fill="#e9ecef" stroke="#adb5bd" stroke-width="1"/>
  
  <!-- Topo do banco -->
  <path d="M40 70 L100 40 L160 70" fill="none" stroke="#495057" stroke-width="3"/>
  
  <!-- Moedas empilhadas -->
  <circle cx="75" cy="95" r="12" fill="#ffd43b" stroke="#f08c00" stroke-width="1"/>
  <circle cx="75" cy="90" r="12" fill="#ffd43b" stroke="#f08c00" stroke-width="1"/>
  <circle cx="75" cy="85" r="12" fill="#ffd43b" stroke="#f08c00" stroke-width="1"/>
  
  <!-- Notas de dinheiro -->
  <rect x="95" y="85" width="30" height="20" rx="2" ry="2" fill="#7ece5d" stroke="#2b8a3e" stroke-width="1"/>
  <rect x="97" y="80" width="30" height="20" rx="2" ry="2" fill="#7ece5d" stroke="#2b8a3e" stroke-width="1"/>
  <rect x="99" y="75" width="30" height="20" rx="2" ry="2" fill="#7ece5d" stroke="#2b8a3e" stroke-width="1"/>
  
  <!-- Símbolo de crescimento -->
  <path d="M130 90 L140 80 L150 90 L140 65 L130 90" fill="#7ece5d" stroke="#2b8a3e" stroke-width="1"/>
  
  <!-- Linhas decorativas nas notas -->
  <line x1="105" y1="80" x2="120" y2="80" stroke="#2b8a3e" stroke-width="1"/>
  <line x1="107" y1="85" x2="122" y2="85" stroke="#2b8a3e" stroke-width="1"/>
  <line x1="109" y1="90" x2="124" y2="90" stroke="#2b8a3e" stroke-width="1"/>
</svg>