<svg xmlns="http://www.w3.org/2000/svg" width="200" height="200" viewBox="0 0 200 200">
  <!-- Fundo circular com gradiente suave -->
  <circle cx="100" cy="100" r="90" fill="#f8f9fa" stroke="#e9ecef" stroke-width="2"/>
  
  <!-- Foguete/Nave representando crescimento e sonhos -->
  <path d="M100 150 L85 120 L85 80 L115 80 L115 120 Z" fill="white" stroke="#495057" stroke-width="3"/>
  <path d="M85 80 A 15 15 0 0 1 115 80" fill="#7ece5d" stroke="#2b8a3e" stroke-width="2"/>
  
  <!-- Janela da nave -->
  <circle cx="100" cy="100" r="10" fill="#74c0fc" stroke="#1864ab" stroke-width="1"/>
  
  <!-- Propulsores/Chamas -->
  <path d="M90 150 L85 170 L95 160 L100 180 L105 160 L115 170 L110 150" fill="#ff922b" stroke="#f76707" stroke-width="1"/>
  
  <!-- Asas da nave -->
  <path d="M85 110 L65 125 L85 120" fill="#7ece5d" stroke="#2b8a3e" stroke-width="2"/>
  <path d="M115 110 L135 125 L115 120" fill="#7ece5d" stroke="#2b8a3e" stroke-width="2"/>
  
  <!-- Estrelas representando sonhos -->
  <path d="M40 40 L43 50 L35 45 L45 45 L37 50 Z" fill="#ffd43b" stroke="#f08c00" stroke-width="1"/>
  <path d="M150 50 L153 60 L145 55 L155 55 L147 60 Z" fill="#ffd43b" stroke="#f08c00" stroke-width="1"/>
  <path d="M160 100 L163 110 L155 105 L165 105 L157 110 Z" fill="#ffd43b" stroke="#f08c00" stroke-width="1"/>
  <path d="M50 120 L53 130 L45 125 L55 125 L47 130 Z" fill="#ffd43b" stroke="#f08c00" stroke-width="1"/>
  <path d="M60 70 L63 80 L55 75 L65 75 L57 80 Z" fill="#ffd43b" stroke="#f08c00" stroke-width="1"/>
  <path d="M130 70 L133 80 L125 75 L135 75 L127 80 Z" fill="#ffd43b" stroke="#f08c00" stroke-width="1"/>
  
  <!-- Casa representando o sonho da casa própria -->
  <path d="M50 160 L70 140 L90 160 L90 180 L50 180 Z" fill="white" stroke="#495057" stroke-width="2"/>
  <rect x="65" y="165" width="10" height="15" fill="#7ece5d" stroke="#2b8a3e" stroke-width="1"/>
  <rect x="55" y="160" width="8" height="8" fill="#74c0fc" stroke="#1864ab" stroke-width="1"/>
  <rect x="77" y="160" width="8" height="8" fill="#74c0fc" stroke="#1864ab" stroke-width="1"/>
  
  <!-- Gráfico de crescimento representando o caminho para os sonhos -->
  <path d="M120 180 L120 150 L130 145 L140 155 L150 140 L160 150 L160 180 Z" fill="#7ece5d" fill-opacity="0.3" stroke="#2b8a3e" stroke-width="2"/>
  <path d="M120 150 L130 145 L140 155 L150 140 L160 150" fill="none" stroke="#2b8a3e" stroke-width="2"/>
  <circle cx="130" cy="145" r="3" fill="#2b8a3e"/>
  <circle cx="140" cy="155" r="3" fill="#2b8a3e"/>
  <circle cx="150" cy="140" r="3" fill="#2b8a3e"/>
  <circle cx="160" cy="150" r="3" fill="#2b8a3e"/>
</svg>